# xmcd
#
# Track frame offsets: 
#        150
#        14193
#        34528
#        52323
#        69275
#        86260
#        107118
#        125555
#        144235
#        161785
#        183883
#        212065
#        228855
#
# Disc length: 3253 seconds
#
# Revision: 1
# Processed by: cddbd v1.5.2PL0 Copyright (c) Steve Scherf et al.
# Submitted via: ExactAudioCopy v1.0b1
#
DISCID=b00cb30d
DTITLE=近藤房之助 - 1968 vol.3 ~NOVEMBER~
DYEAR=2013
DGENRE=Blues
TTITLE0=Hard Hearted Woman
TTITLE1=Rocks In My Bed
TTITLE2=Hellhound On My Trail
TTITLE3=People Junction -Take 2-
TTITLE4=Little Boy Blue
TTITLE5=Be Careful With A Fool
TTITLE6=Sloppy Drunk Blues
TTITLE7=Love That Woman
TTITLE8=Mama,Talk To Your Daughter
TTITLE9=Take A Look Behind
TTITLE10=November
TTITLE11=Come On In This House
TTITLE12=Telephone Blues
EXTD=
EXTT0=
EXTT1=
EXTT2=
EXTT3=
EXTT4=
EXTT5=
EXTT6=
EXTT7=
EXTT8=
EXTT9=
EXTT10=
EXTT11=
EXTT12=
PLAYORDER=
